<?xml version="1.0" encoding="UTF-8"?>
<svg width="1400" height="1000" xmlns="http://www.w3.org/2000/svg">
  <defs>
    <style>
      .title { font-family: Arial, sans-serif; font-size: 24px; font-weight: bold; fill: #2c3e50; }
      .subtitle { font-family: Arial, sans-serif; font-size: 16px; fill: #34495e; }
      .phase-title { font-family: Arial, sans-serif; font-size: 18px; font-weight: bold; fill: #2c3e50; }
      .step-title { font-family: Arial, sans-serif; font-size: 14px; font-weight: bold; fill: #2c3e50; }
      .step-text { font-family: Arial, sans-serif; font-size: 11px; fill: #2c3e50; }
      .file-name { font-family: Arial, sans-serif; font-size: 10px; fill: #e74c3c; font-weight: bold; }
      .tech-label { font-family: Arial, sans-serif; font-size: 10px; fill: #9b59b6; font-weight: bold; }
      .arrow { stroke: #3498db; stroke-width: 2; fill: none; marker-end: url(#arrowhead); }
      .data-arrow { stroke: #e74c3c; stroke-width: 3; fill: none; marker-end: url(#redarrow); }
      .feedback-arrow { stroke: #f39c12; stroke-width: 2; fill: none; marker-end: url(#orangearrow); stroke-dasharray: 5,5; }
      .collect-box { fill: #3498db; stroke: #2980b9; stroke-width: 2; }
      .process-box { fill: #2ecc71; stroke: #27ae60; stroke-width: 2; }
      .train-box { fill: #e74c3c; stroke: #c0392b; stroke-width: 2; }
      .deploy-box { fill: #9b59b6; stroke: #8e44ad; stroke-width: 2; }
      .eval-box { fill: #f39c12; stroke: #e67e22; stroke-width: 2; }
      .storage-box { fill: #34495e; stroke: #2c3e50; stroke-width: 2; }
    </style>
    <marker id="arrowhead" markerWidth="10" markerHeight="7" refX="9" refY="3.5" orient="auto">
      <polygon points="0 0, 10 3.5, 0 7" fill="#3498db"/>
    </marker>
    <marker id="redarrow" markerWidth="10" markerHeight="7" refX="9" refY="3.5" orient="auto">
      <polygon points="0 0, 10 3.5, 0 7" fill="#e74c3c"/>
    </marker>
    <marker id="orangearrow" markerWidth="10" markerHeight="7" refX="9" refY="3.5" orient="auto">
      <polygon points="0 0, 10 3.5, 0 7" fill="#f39c12"/>
    </marker>
  </defs>
  
  <!-- 背景 -->
  <rect width="1400" height="1000" fill="#ecf0f1"/>
  
  <!-- 标题 -->
  <text x="700" y="30" text-anchor="middle" class="title">AI训练工作流程图</text>
  <text x="700" y="55" text-anchor="middle" class="subtitle">DeepSeek模型训练 + 数据处理 + 模型部署完整流程</text>
  
  <!-- 第一阶段：数据收集 -->
  <text x="50" y="90" class="phase-title">阶段1: 数据收集与整合</text>
  
  <!-- 多源数据收集 -->
  <rect x="50" y="100" width="180" height="140" class="collect-box" rx="8"/>
  <text x="140" y="120" text-anchor="middle" class="step-title" fill="white">多源数据收集</text>
  <text x="140" y="140" text-anchor="middle" class="file-name" fill="white">collect_ai_data.py</text>
  <text x="140" y="155" text-anchor="middle" class="step-text" fill="white">• OpenDota API数据</text>
  <text x="140" y="170" text-anchor="middle" class="step-text" fill="white">• STRATZ API数据</text>
  <text x="140" y="185" text-anchor="middle" class="step-text" fill="white">• Liquipedia数据</text>
  <text x="140" y="200" text-anchor="middle" class="step-text" fill="white">• 社区评论数据</text>
  <text x="140" y="215" text-anchor="middle" class="step-text" fill="white">• 专家观点数据</text>
  <text x="140" y="230" text-anchor="middle" class="tech-label" fill="white">T-1数据策略</text>
  
  <!-- 比赛数据收集器 -->
  <rect x="250" y="100" width="180" height="140" class="collect-box" rx="8"/>
  <text x="340" y="120" text-anchor="middle" class="step-title" fill="white">比赛数据收集器</text>
  <text x="340" y="140" text-anchor="middle" class="file-name" fill="white">match_data_collector.py</text>
  <text x="340" y="155" text-anchor="middle" class="step-text" fill="white">• 比赛基础信息</text>
  <text x="340" y="170" text-anchor="middle" class="step-text" fill="white">• 选手表现数据</text>
  <text x="340" y="185" text-anchor="middle" class="step-text" fill="white">• 英雄搭配数据</text>
  <text x="340" y="200" text-anchor="middle" class="step-text" fill="white">• 装备出装数据</text>
  <text x="340" y="215" text-anchor="middle" class="step-text" fill="white">• 时间线事件</text>
  <text x="340" y="230" text-anchor="middle" class="tech-label" fill="white">实时同步</text>
  
  <!-- DEM文件处理 -->
  <rect x="450" y="100" width="180" height="140" class="collect-box" rx="8"/>
  <text x="540" y="120" text-anchor="middle" class="step-title" fill="white">DEM文件处理</text>
  <text x="540" y="140" text-anchor="middle" class="file-name" fill="white">dem_processor.py</text>
  <text x="540" y="155" text-anchor="middle" class="step-text" fill="white">• 录像文件下载</text>
  <text x="540" y="170" text-anchor="middle" class="step-text" fill="white">• JSON格式转换</text>
  <text x="540" y="185" text-anchor="middle" class="step-text" fill="white">• 详细事件提取</text>
  <text x="540" y="200" text-anchor="middle" class="step-text" fill="white">• 位置数据分析</text>
  <text x="540" y="215" text-anchor="middle" class="step-text" fill="white">• OSS云存储</text>
  <text x="540" y="230" text-anchor="middle" class="tech-label" fill="white">Clarity解析</text>
  
  <!-- 社区数据挖掘 -->
  <rect x="650" y="100" width="180" height="140" class="collect-box" rx="8"/>
  <text x="740" y="120" text-anchor="middle" class="step-title" fill="white">社区数据挖掘</text>
  <text x="740" y="140" text-anchor="middle" class="file-name" fill="white">community_scraper.py</text>
  <text x="740" y="155" text-anchor="middle" class="step-text" fill="white">• 用户讨论内容</text>
  <text x="740" y="170" text-anchor="middle" class="step-text" fill="white">• 专家分析观点</text>
  <text x="740" y="185" text-anchor="middle" class="step-text" fill="white">• 点赞评分数据</text>
  <text x="740" y="200" text-anchor="middle" class="step-text" fill="white">• 情感倾向分析</text>
  <text x="740" y="215" text-anchor="middle" class="step-text" fill="white">• 热点话题提取</text>
  <text x="740" y="230" text-anchor="middle" class="tech-label" fill="white">NLP预处理</text>
  
  <!-- 第二阶段：数据处理 -->
  <text x="50" y="280" class="phase-title">阶段2: 数据清洗与预处理</text>
  
  <!-- 数据清洗 -->
  <rect x="50" y="290" width="180" height="140" class="process-box" rx="8"/>
  <text x="140" y="310" text-anchor="middle" class="step-title" fill="white">数据清洗</text>
  <text x="140" y="330" text-anchor="middle" class="file-name" fill="white">data_cleaner.py</text>
  <text x="140" y="345" text-anchor="middle" class="step-text" fill="white">• 重复数据去除</text>
  <text x="140" y="360" text-anchor="middle" class="step-text" fill="white">• 异常值检测</text>
  <text x="140" y="375" text-anchor="middle" class="step-text" fill="white">• 缺失值处理</text>
  <text x="140" y="390" text-anchor="middle" class="step-text" fill="white">• 数据格式标准化</text>
  <text x="140" y="405" text-anchor="middle" class="step-text" fill="white">• 质量评分</text>
  <text x="140" y="420" text-anchor="middle" class="tech-label" fill="white">Pandas处理</text>
  
  <!-- 特征工程 -->
  <rect x="250" y="290" width="180" height="140" class="process-box" rx="8"/>
  <text x="340" y="310" text-anchor="middle" class="step-title" fill="white">特征工程</text>
  <text x="340" y="330" text-anchor="middle" class="file-name" fill="white">feature_engineer.py</text>
  <text x="340" y="345" text-anchor="middle" class="step-text" fill="white">• 统计特征提取</text>
  <text x="340" y="360" text-anchor="middle" class="step-text" fill="white">• 时序特征构建</text>
  <text x="340" y="375" text-anchor="middle" class="step-text" fill="white">• 交互特征生成</text>
  <text x="340" y="390" text-anchor="middle" class="step-text" fill="white">• 特征选择优化</text>
  <text x="340" y="405" text-anchor="middle" class="step-text" fill="white">• 降维处理</text>
  <text x="340" y="420" text-anchor="middle" class="tech-label" fill="white">Scikit-learn</text>
  
  <!-- 训练数据生成 -->
  <rect x="450" y="290" width="180" height="140" class="process-box" rx="8"/>
  <text x="540" y="310" text-anchor="middle" class="step-title" fill="white">训练数据生成</text>
  <text x="540" y="330" text-anchor="middle" class="file-name" fill="white">training_data_generator.py</text>
  <text x="540" y="345" text-anchor="middle" class="step-text" fill="white">• DeepSeek格式转换</text>
  <text x="540" y="360" text-anchor="middle" class="step-text" fill="white">• 问答对构建</text>
  <text x="540" y="375" text-anchor="middle" class="step-text" fill="white">• 上下文组织</text>
  <text x="540" y="390" text-anchor="middle" class="step-text" fill="white">• 标签生成</text>
  <text x="540" y="405" text-anchor="middle" class="step-text" fill="white">• 数据增强</text>
  <text x="540" y="420" text-anchor="middle" class="tech-label" fill="white">JSON格式</text>
  
  <!-- DeepSeek处理器 -->
  <rect x="650" y="290" width="180" height="140" class="process-box" rx="8"/>
  <text x="740" y="310" text-anchor="middle" class="step-title" fill="white">DeepSeek处理器</text>
  <text x="740" y="330" text-anchor="middle" class="file-name" fill="white">deepseek_processor.py</text>
  <text x="740" y="345" text-anchor="middle" class="step-text" fill="white">• 模型格式适配</text>
  <text x="740" y="360" text-anchor="middle" class="step-text" fill="white">• Token化处理</text>
  <text x="740" y="375" text-anchor="middle" class="step-text" fill="white">• 序列长度优化</text>
  <text x="740" y="390" text-anchor="middle" class="step-text" fill="white">• 批处理组织</text>
  <text x="740" y="405" text-anchor="middle" class="step-text" fill="white">• 验证集划分</text>
  <text x="740" y="420" text-anchor="middle" class="tech-label" fill="white">Transformers</text>
  
  <!-- 数据存储 -->
  <rect x="850" y="290" width="180" height="140" class="storage-box" rx="8"/>
  <text x="940" y="310" text-anchor="middle" class="step-title" fill="white">数据存储</text>
  <text x="940" y="330" text-anchor="middle" class="file-name" fill="white">data_manager.py</text>
  <text x="940" y="345" text-anchor="middle" class="step-text" fill="white">• 训练数据集</text>
  <text x="940" y="360" text-anchor="middle" class="step-text" fill="white">• 验证数据集</text>
  <text x="940" y="375" text-anchor="middle" class="step-text" fill="white">• 测试数据集</text>
  <text x="940" y="390" text-anchor="middle" class="step-text" fill="white">• 元数据管理</text>
  <text x="940" y="405" text-anchor="middle" class="step-text" fill="white">• 版本控制</text>
  <text x="940" y="420" text-anchor="middle" class="tech-label" fill="white">HDF5/Parquet</text>
  
  <!-- 第三阶段：模型训练 -->
  <text x="50" y="470" class="phase-title">阶段3: AI模型训练与优化</text>
  
  <!-- 基础模型准备 -->
  <rect x="50" y="480" width="180" height="140" class="train-box" rx="8"/>
  <text x="140" y="500" text-anchor="middle" class="step-title" fill="white">基础模型准备</text>
  <text x="140" y="520" text-anchor="middle" class="file-name" fill="white">model_loader.py</text>
  <text x="140" y="535" text-anchor="middle" class="step-text" fill="white">• DeepSeek模型下载</text>
  <text x="140" y="550" text-anchor="middle" class="step-text" fill="white">• 模型权重加载</text>
  <text x="140" y="565" text-anchor="middle" class="step-text" fill="white">• 配置参数设置</text>
  <text x="140" y="580" text-anchor="middle" class="step-text" fill="white">• GPU/CPU适配</text>
  <text x="140" y="595" text-anchor="middle" class="step-text" fill="white">• 内存优化</text>
  <text x="140" y="610" text-anchor="middle" class="tech-label" fill="white">HuggingFace</text>
  
  <!-- 微调训练 -->
  <rect x="250" y="480" width="180" height="140" class="train-box" rx="8"/>
  <text x="340" y="500" text-anchor="middle" class="step-title" fill="white">微调训练</text>
  <text x="340" y="520" text-anchor="middle" class="file-name" fill="white">fine_tuner.py</text>
  <text x="340" y="535" text-anchor="middle" class="step-text" fill="white">• LoRA微调策略</text>
  <text x="340" y="550" text-anchor="middle" class="step-text" fill="white">• 学习率调度</text>
  <text x="340" y="565" text-anchor="middle" class="step-text" fill="white">• 梯度累积</text>
  <text x="340" y="580" text-anchor="middle" class="step-text" fill="white">• 早停策略</text>
  <text x="340" y="595" text-anchor="middle" class="step-text" fill="white">• 检查点保存</text>
  <text x="340" y="610" text-anchor="middle" class="tech-label" fill="white">PyTorch</text>
  
  <!-- 超参数优化 -->
  <rect x="450" y="480" width="180" height="140" class="train-box" rx="8"/>
  <text x="540" y="500" text-anchor="middle" class="step-title" fill="white">超参数优化</text>
  <text x="540" y="520" text-anchor="middle" class="file-name" fill="white">hyperopt.py</text>
  <text x="540" y="535" text-anchor="middle" class="step-text" fill="white">• 网格搜索</text>
  <text x="540" y="550" text-anchor="middle" class="step-text" fill="white">• 贝叶斯优化</text>
  <text x="540" y="565" text-anchor="middle" class="step-text" fill="white">• 随机搜索</text>
  <text x="540" y="580" text-anchor="middle" class="step-text" fill="white">• 交叉验证</text>
  <text x="540" y="595" text-anchor="middle" class="step-text" fill="white">• 性能监控</text>
  <text x="540" y="610" text-anchor="middle" class="tech-label" fill="white">Optuna</text>
  
  <!-- 分布式训练 -->
  <rect x="650" y="480" width="180" height="140" class="train-box" rx="8"/>
  <text x="740" y="500" text-anchor="middle" class="step-title" fill="white">分布式训练</text>
  <text x="740" y="520" text-anchor="middle" class="file-name" fill="white">distributed_trainer.py</text>
  <text x="740" y="535" text-anchor="middle" class="step-text" fill="white">• 多GPU并行</text>
  <text x="740" y="550" text-anchor="middle" class="step-text" fill="white">• 数据并行</text>
  <text x="740" y="565" text-anchor="middle" class="step-text" fill="white">• 模型并行</text>
  <text x="740" y="580" text-anchor="middle" class="step-text" fill="white">• 梯度同步</text>
  <text x="740" y="595" text-anchor="middle" class="step-text" fill="white">• 负载均衡</text>
  <text x="740" y="610" text-anchor="middle" class="tech-label" fill="white">DeepSpeed</text>
  
  <!-- 第四阶段：模型评估 -->
  <text x="870" y="470" class="phase-title">阶段4: 模型评估与验证</text>
  
  <!-- 性能评估 -->
  <rect x="870" y="480" width="180" height="140" class="eval-box" rx="8"/>
  <text x="960" y="500" text-anchor="middle" class="step-title" fill="white">性能评估</text>
  <text x="960" y="520" text-anchor="middle" class="file-name" fill="white">evaluator.py</text>
  <text x="960" y="535" text-anchor="middle" class="step-text" fill="white">• BLEU分数评估</text>
  <text x="960" y="550" text-anchor="middle" class="step-text" fill="white">• ROUGE指标</text>
  <text x="960" y="565" text-anchor="middle" class="step-text" fill="white">• 困惑度计算</text>
  <text x="960" y="580" text-anchor="middle" class="step-text" fill="white">• 人工评估</text>
  <text x="960" y="595" text-anchor="middle" class="step-text" fill="white">• A/B测试</text>
  <text x="960" y="610" text-anchor="middle" class="tech-label" fill="white">NLTK/spaCy</text>
  
  <!-- 质量检测 -->
  <rect x="1070" y="480" width="180" height="140" class="eval-box" rx="8"/>
  <text x="1160" y="500" text-anchor="middle" class="step-title" fill="white">质量检测</text>
  <text x="1160" y="520" text-anchor="middle" class="file-name" fill="white">quality_checker.py</text>
  <text x="1160" y="535" text-anchor="middle" class="step-text" fill="white">• 输出一致性</text>
  <text x="1160" y="550" text-anchor="middle" class="step-text" fill="white">• 事实准确性</text>
  <text x="1160" y="565" text-anchor="middle" class="step-text" fill="white">• 逻辑连贯性</text>
  <text x="1160" y="580" text-anchor="middle" class="step-text" fill="white">• 偏见检测</text>
  <text x="1160" y="595" text-anchor="middle" class="step-text" fill="white">• 安全性验证</text>
  <text x="1160" y="610" text-anchor="middle" class="tech-label" fill="white">自定义规则</text>
  
  <!-- 第五阶段：模型部署 -->
  <text x="50" y="660" class="phase-title">阶段5: 模型部署与服务</text>
  
  <!-- 模型优化 -->
  <rect x="50" y="670" width="180" height="120" class="deploy-box" rx="8"/>
  <text x="140" y="690" text-anchor="middle" class="step-title" fill="white">模型优化</text>
  <text x="140" y="710" text-anchor="middle" class="file-name" fill="white">optimizer.py</text>
  <text x="140" y="725" text-anchor="middle" class="step-text" fill="white">• 模型量化</text>
  <text x="140" y="740" text-anchor="middle" class="step-text" fill="white">• 权重剪枝</text>
  <text x="140" y="755" text-anchor="middle" class="step-text" fill="white">• 知识蒸馏</text>
  <text x="140" y="770" text-anchor="middle" class="step-text" fill="white">• ONNX转换</text>
  <text x="140" y="785" text-anchor="middle" class="tech-label" fill="white">TensorRT</text>
  
  <!-- 服务部署 -->
  <rect x="250" y="670" width="180" height="120" class="deploy-box" rx="8"/>
  <text x="340" y="690" text-anchor="middle" class="step-title" fill="white">服务部署</text>
  <text x="340" y="710" text-anchor="middle" class="file-name" fill="white">ai_service.py</text>
  <text x="340" y="725" text-anchor="middle" class="step-text" fill="white">• FastAPI服务</text>
  <text x="340" y="740" text-anchor="middle" class="step-text" fill="white">• Docker容器化</text>
  <text x="340" y="755" text-anchor="middle" class="step-text" fill="white">• 负载均衡</text>
  <text x="340" y="770" text-anchor="middle" class="step-text" fill="white">• 健康检查</text>
  <text x="340" y="785" text-anchor="middle" class="tech-label" fill="white">Kubernetes</text>
  
  <!-- AI助手集成 -->
  <rect x="450" y="670" width="180" height="120" class="deploy-box" rx="8"/>
  <text x="540" y="690" text-anchor="middle" class="step-title" fill="white">AI助手集成</text>
  <text x="540" y="710" text-anchor="middle" class="file-name" fill="white">ai_assistant_demo.py</text>
  <text x="540" y="725" text-anchor="middle" class="step-text" fill="white">• 比赛分析接口</text>
  <text x="540" y="740" text-anchor="middle" class="step-text" fill="white">• 学习推荐</text>
  <text x="540" y="755" text-anchor="middle" class="step-text" fill="white">• 问答系统</text>
  <text x="540" y="770" text-anchor="middle" class="step-text" fill="white">• 实时推理</text>
  <text x="540" y="785" text-anchor="middle" class="tech-label" fill="white">Flask集成</text>
  
  <!-- 监控告警 -->
  <rect x="650" y="670" width="180" height="120" class="deploy-box" rx="8"/>
  <text x="740" y="690" text-anchor="middle" class="step-title" fill="white">监控告警</text>
  <text x="740" y="710" text-anchor="middle" class="file-name" fill="white">monitor.py</text>
  <text x="740" y="725" text-anchor="middle" class="step-text" fill="white">• 性能监控</text>
  <text x="740" y="740" text-anchor="middle" class="step-text" fill="white">• 资源监控</text>
  <text x="740" y="755" text-anchor="middle" class="step-text" fill="white">• 错误告警</text>
  <text x="740" y="770" text-anchor="middle" class="step-text" fill="white">• 日志分析</text>
  <text x="740" y="785" text-anchor="middle" class="tech-label" fill="white">Prometheus</text>
  
  <!-- 持续学习 -->
  <rect x="850" y="670" width="180" height="120" class="deploy-box" rx="8"/>
  <text x="940" y="690" text-anchor="middle" class="step-title" fill="white">持续学习</text>
  <text x="940" y="710" text-anchor="middle" class="file-name" fill="white">continuous_learner.py</text>
  <text x="940" y="725" text-anchor="middle" class="step-text" fill="white">• 在线学习</text>
  <text x="940" y="740" text-anchor="middle" class="step-text" fill="white">• 增量训练</text>
  <text x="940" y="755" text-anchor="middle" class="step-text" fill="white">• 模型更新</text>
  <text x="940" y="770" text-anchor="middle" class="step-text" fill="white">• 版本管理</text>
  <text x="940" y="785" text-anchor="middle" class="tech-label" fill="white">MLflow</text>
  
  <!-- 用户反馈 -->
  <rect x="1050" y="670" width="180" height="120" class="eval-box" rx="8"/>
  <text x="1140" y="690" text-anchor="middle" class="step-title" fill="white">用户反馈</text>
  <text x="1140" y="710" text-anchor="middle" class="file-name" fill="white">feedback_collector.py</text>
  <text x="1140" y="725" text-anchor="middle" class="step-text" fill="white">• 用户评分</text>
  <text x="1140" y="740" text-anchor="middle" class="step-text" fill="white">• 使用统计</text>
  <text x="1140" y="755" text-anchor="middle" class="step-text" fill="white">• 错误收集</text>
  <text x="1140" y="770" text-anchor="middle" class="step-text" fill="white">• 改进建议</text>
  <text x="1140" y="785" text-anchor="middle" class="tech-label" fill="white">分析报告</text>
  
  <!-- 数据流连接线 -->
  <!-- 阶段1内部连接 -->
  <line x1="230" y1="170" x2="250" y2="170" class="arrow"/>
  <line x1="430" y1="170" x2="450" y2="170" class="arrow"/>
  <line x1="630" y1="170" x2="650" y2="170" class="arrow"/>
  
  <!-- 阶段1到阶段2 -->
  <line x1="140" y1="240" x2="140" y2="290" class="data-arrow"/>
  <line x1="340" y1="240" x2="340" y2="290" class="data-arrow"/>
  <line x1="540" y1="240" x2="540" y2="290" class="data-arrow"/>
  <line x1="740" y1="240" x2="740" y2="290" class="data-arrow"/>
  
  <!-- 阶段2内部连接 -->
  <line x1="230" y1="360" x2="250" y2="360" class="arrow"/>
  <line x1="430" y1="360" x2="450" y2="360" class="arrow"/>
  <line x1="630" y1="360" x2="650" y2="360" class="arrow"/>
  <line x1="830" y1="360" x2="850" y2="360" class="arrow"/>
  
  <!-- 阶段2到阶段3 -->
  <line x1="540" y1="430" x2="140" y2="480" class="data-arrow"/>
  <line x1="740" y1="430" x2="340" y2="480" class="data-arrow"/>
  <line x1="940" y1="430" x2="540" y2="480" class="data-arrow"/>
  
  <!-- 阶段3内部连接 -->
  <line x1="230" y1="550" x2="250" y2="550" class="arrow"/>
  <line x1="430" y1="550" x2="450" y2="550" class="arrow"/>
  <line x1="630" y1="550" x2="650" y2="550" class="arrow"/>
  
  <!-- 阶段3到阶段4 -->
  <line x1="740" y1="550" x2="870" y2="550" class="data-arrow"/>
  <line x1="960" y1="550" x2="1070" y2="550" class="arrow"/>
  
  <!-- 阶段4到阶段5 -->
  <line x1="960" y1="620" x2="340" y2="670" class="data-arrow"/>
  <line x1="1160" y1="620" x2="540" y2="670" class="data-arrow"/>
  
  <!-- 阶段5内部连接 -->
  <line x1="230" y1="730" x2="250" y2="730" class="arrow"/>
  <line x1="430" y1="730" x2="450" y2="730" class="arrow"/>
  <line x1="630" y1="730" x2="650" y2="730" class="arrow"/>
  <line x1="830" y1="730" x2="850" y2="730" class="arrow"/>
  <line x1="1030" y1="730" x2="1050" y2="730" class="arrow"/>
  
  <!-- 反馈循环 -->
  <line x1="1140" y1="670" x2="1140" y2="100" class="feedback-arrow"/>
  <line x1="1140" y1="100" x2="140" y2="100" class="feedback-arrow"/>
  
  <!-- 持续学习反馈 -->
  <line x1="940" y1="670" x2="340" y2="480" class="feedback-arrow"/>
  
  <!-- 配置和文档说明 -->
  <rect x="50" y="820" width="1200" height="150" fill="white" stroke="#bdc3c7" stroke-width="1" rx="5"/>
  <text x="70" y="840" class="phase-title">AI训练工作流程配置</text>
  
  <text x="70" y="860" class="step-title">训练环境:</text>
  <text x="150" y="860" class="step-text">GPU集群(A100/V100) + Docker容器 + Kubernetes编排</text>
  
  <text x="70" y="875" class="step-title">数据规模:</text>
  <text x="150" y="875" class="step-text">预计100万+比赛记录，500万+社区讨论，1TB+训练数据</text>
  
  <text x="70" y="890" class="step-title">训练周期:</text>
  <text x="150" y="890" class="step-text">初始训练2-4周，增量更新每周一次，紧急修复随时部署</text>
  
  <text x="70" y="905" class="step-title">质量保证:</text>
  <text x="150" y="905" class="step-text">自动化测试 + 人工评估 + A/B测试 + 用户反馈闭环</text>
  
  <text x="70" y="920" class="step-title">部署策略:</text>
  <text x="150" y="920" class="step-text">蓝绿部署 + 金丝雀发布 + 自动回滚 + 多版本并存</text>
  
  <text x="70" y="935" class="step-title">监控指标:</text>
  <text x="150" y="935" class="step-text">推理延迟、吞吐量、准确率、用户满意度、资源使用率</text>
  
  <text x="70" y="950" class="step-title">技术栈:</text>
  <text x="130" y="950" class="step-text">PyTorch + HuggingFace + DeepSpeed + FastAPI + Docker + K8s + MLflow</text>
  
  <text x="650" y="860" class="step-title">数据安全:</text>
  <text x="720" y="860" class="step-text">数据加密 + 访问控制 + 审计日志 + 隐私保护</text>
  
  <text x="650" y="875" class="step-title">成本优化:</text>
  <text x="720" y="875" class="step-text">混合云部署 + 弹性扩缩容 + 资源调度优化</text>
  
  <text x="650" y="890" class="step-title">模型版本:</text>
  <text x="720" y="890" class="step-text">语义版本控制 + 模型注册表 + 实验跟踪</text>
  
  <text x="650" y="905" class="step-title">API接口:</text>
  <text x="710" y="905" class="step-text">RESTful API + GraphQL + WebSocket + 批处理接口</text>
  
  <text x="650" y="920" class="step-title">扩展性:</text>
  <text x="700" y="920" class="step-text">微服务架构 + 消息队列 + 分布式缓存</text>
  
  <text x="650" y="935" class="step-title">合规性:</text>
  <text x="700" y="935" class="step-text">数据治理 + 模型可解释性 + 偏见检测</text>
  
  <text x="650" y="950" class="step-title">文档:</text>
  <text x="690" y="950" class="step-text">API文档 + 模型文档 + 运维手册 + 用户指南</text>
  
</svg>

