<?xml version="1.0" encoding="UTF-8"?>
<svg width="1300" height="900" xmlns="http://www.w3.org/2000/svg">
  <defs>
    <style>
      .title { font-family: Arial, sans-serif; font-size: 24px; font-weight: bold; fill: #2c3e50; }
      .subtitle { font-family: Arial, sans-serif; font-size: 16px; fill: #34495e; }
      .layer-title { font-family: Arial, sans-serif; font-size: 18px; font-weight: bold; fill: #2c3e50; }
      .component-title { font-family: Arial, sans-serif; font-size: 14px; font-weight: bold; fill: #2c3e50; }
      .file-name { font-family: Arial, sans-serif; font-size: 11px; fill: #2c3e50; font-weight: bold; }
      .description { font-family: Arial, sans-serif; font-size: 10px; fill: #7f8c8d; }
      .tech-label { font-family: Arial, sans-serif; font-size: 10px; fill: #e74c3c; font-weight: bold; }
      .arrow { stroke: #3498db; stroke-width: 2; fill: none; marker-end: url(#arrowhead); }
      .data-flow { stroke: #e74c3c; stroke-width: 2; fill: none; marker-end: url(#redarrow); }
      .page-box { fill: #3498db; stroke: #2980b9; stroke-width: 2; }
      .js-box { fill: #f39c12; stroke: #e67e22; stroke-width: 2; }
      .css-box { fill: #2ecc71; stroke: #27ae60; stroke-width: 2; }
      .lib-box { fill: #9b59b6; stroke: #8e44ad; stroke-width: 2; }
      .api-box { fill: #e74c3c; stroke: #c0392b; stroke-width: 2; }
      .util-box { fill: #34495e; stroke: #2c3e50; stroke-width: 2; }
    </style>
    <marker id="arrowhead" markerWidth="10" markerHeight="7" refX="9" refY="3.5" orient="auto">
      <polygon points="0 0, 10 3.5, 0 7" fill="#3498db"/>
    </marker>
    <marker id="redarrow" markerWidth="10" markerHeight="7" refX="9" refY="3.5" orient="auto">
      <polygon points="0 0, 10 3.5, 0 7" fill="#e74c3c"/>
    </marker>
  </defs>
  
  <!-- 背景 -->
  <rect width="1300" height="900" fill="#ecf0f1"/>
  
  <!-- 标题 -->
  <text x="650" y="30" text-anchor="middle" class="title">前端架构设计图</text>
  <text x="650" y="55" text-anchor="middle" class="subtitle">原生HTML + JavaScript + CSS 模块化架构</text>
  
  <!-- 页面层 -->
  <text x="50" y="90" class="layer-title">页面层 (HTML Pages)</text>
  
  <!-- 主要页面 -->
  <rect x="50" y="100" width="140" height="120" class="page-box" rx="8"/>
  <text x="120" y="120" text-anchor="middle" class="component-title" fill="white">主页面</text>
  <text x="120" y="140" text-anchor="middle" class="file-name" fill="white">index.html</text>
  <text x="120" y="155" text-anchor="middle" class="description" fill="white">首页导航</text>
  <text x="120" y="170" text-anchor="middle" class="description" fill="white">快速入口</text>
  <text x="120" y="185" text-anchor="middle" class="description" fill="white">热门内容</text>
  <text x="120" y="200" text-anchor="middle" class="description" fill="white">实时数据</text>
  
  <rect x="210" y="100" width="140" height="120" class="page-box" rx="8"/>
  <text x="280" y="120" text-anchor="middle" class="component-title" fill="white">比赛页面</text>
  <text x="280" y="140" text-anchor="middle" class="file-name" fill="white">matches.html</text>
  <text x="280" y="155" text-anchor="middle" class="description" fill="white">比赛列表</text>
  <text x="280" y="170" text-anchor="middle" class="file-name" fill="white">match.html</text>
  <text x="280" y="185" text-anchor="middle" class="description" fill="white">比赛详情</text>
  <text x="280" y="200" text-anchor="middle" class="description" fill="white">选手数据</text>
  
  <rect x="370" y="100" width="140" height="120" class="page-box" rx="8"/>
  <text x="440" y="120" text-anchor="middle" class="component-title" fill="white">数据分析</text>
  <text x="440" y="140" text-anchor="middle" class="file-name" fill="white">analytics.html</text>
  <text x="440" y="155" text-anchor="middle" class="description" fill="white">统计图表</text>
  <text x="440" y="170" text-anchor="middle" class="description" fill="white">数据可视化</text>
  <text x="440" y="185" text-anchor="middle" class="description" fill="white">交互控制</text>
  <text x="440" y="200" text-anchor="middle" class="description" fill="white">导出功能</text>
  
  <rect x="530" y="100" width="140" height="120" class="page-box" rx="8"/>
  <text x="600" y="120" text-anchor="middle" class="component-title" fill="white">社区功能</text>
  <text x="600" y="140" text-anchor="middle" class="file-name" fill="white">community.html</text>
  <text x="600" y="155" text-anchor="middle" class="file-name" fill="white">discussion.html</text>
  <text x="600" y="170" text-anchor="middle" class="description" fill="white">讨论区</text>
  <text x="600" y="185" text-anchor="middle" class="description" fill="white">评论系统</text>
  <text x="600" y="200" text-anchor="middle" class="description" fill="white">点赞功能</text>
  
  <rect x="690" y="100" width="140" height="120" class="page-box" rx="8"/>
  <text x="760" y="120" text-anchor="middle" class="component-title" fill="white">专家系统</text>
  <text x="760" y="140" text-anchor="middle" class="file-name" fill="white">experts.html</text>
  <text x="760" y="155" text-anchor="middle" class="file-name" fill="white">expert.html</text>
  <text x="760" y="170" text-anchor="middle" class="description" fill="white">专家列表</text>
  <text x="760" y="185" text-anchor="middle" class="description" fill="white">专家详情</text>
  <text x="760" y="200" text-anchor="middle" class="description" fill="white">观点展示</text>
  
  <rect x="850" y="100" width="140" height="120" class="page-box" rx="8"/>
  <text x="920" y="120" text-anchor="middle" class="component-title" fill="white">学习中心</text>
  <text x="920" y="140" text-anchor="middle" class="file-name" fill="white">learning.html</text>
  <text x="920" y="155" text-anchor="middle" class="description" fill="white">课程列表</text>
  <text x="920" y="170" text-anchor="middle" class="description" fill="white">进度跟踪</text>
  <text x="920" y="185" text-anchor="middle" class="description" fill="white">测验系统</text>
  <text x="920" y="200" text-anchor="middle" class="description" fill="white">成就系统</text>
  
  <rect x="1010" y="100" width="140" height="120" class="page-box" rx="8"/>
  <text x="1080" y="120" text-anchor="middle" class="component-title" fill="white">用户管理</text>
  <text x="1080" y="140" text-anchor="middle" class="file-name" fill="white">login.html</text>
  <text x="1080" y="155" text-anchor="middle" class="file-name" fill="white">register.html</text>
  <text x="1080" y="170" text-anchor="middle" class="description" fill="white">登录注册</text>
  <text x="1080" y="185" text-anchor="middle" class="description" fill="white">个人中心</text>
  <text x="1080" y="200" text-anchor="middle" class="description" fill="white">设置页面</text>
  
  <!-- JavaScript核心层 -->
  <text x="50" y="260" class="layer-title">JavaScript 核心层</text>
  
  <!-- 主控制器 -->
  <rect x="50" y="270" width="180" height="120" class="js-box" rx="8"/>
  <text x="140" y="290" text-anchor="middle" class="component-title" fill="white">主控制器</text>
  <text x="140" y="310" text-anchor="middle" class="file-name" fill="white">main.js</text>
  <text x="140" y="325" text-anchor="middle" class="description" fill="white">应用初始化</text>
  <text x="140" y="340" text-anchor="middle" class="description" fill="white">路由管理</text>
  <text x="140" y="355" text-anchor="middle" class="description" fill="white">全局事件</text>
  <text x="140" y="370" text-anchor="middle" class="description" fill="white">状态管理</text>
  
  <!-- 页面控制器 -->
  <rect x="250" y="270" width="180" height="120" class="js-box" rx="8"/>
  <text x="340" y="290" text-anchor="middle" class="component-title" fill="white">页面控制器</text>
  <text x="340" y="310" text-anchor="middle" class="file-name" fill="white">matches.js</text>
  <text x="340" y="325" text-anchor="middle" class="file-name" fill="white">analytics.js</text>
  <text x="340" y="340" text-anchor="middle" class="file-name" fill="white">community.js</text>
  <text x="340" y="355" text-anchor="middle" class="file-name" fill="white">experts.js</text>
  <text x="340" y="370" text-anchor="middle" class="file-name" fill="white">learning.js</text>
  
  <!-- 图表管理器 -->
  <rect x="450" y="270" width="180" height="120" class="js-box" rx="8"/>
  <text x="540" y="290" text-anchor="middle" class="component-title" fill="white">图表管理器</text>
  <text x="540" y="310" text-anchor="middle" class="file-name" fill="white">charts.js</text>
  <text x="540" y="325" text-anchor="middle" class="description" fill="white">ECharts配置</text>
  <text x="540" y="340" text-anchor="middle" class="description" fill="white">D3.js交互</text>
  <text x="540" y="355" text-anchor="middle" class="description" fill="white">图表渲染</text>
  <text x="540" y="370" text-anchor="middle" class="description" fill="white">数据绑定</text>
  
  <!-- API接口层 -->
  <rect x="650" y="270" width="180" height="120" class="api-box" rx="8"/>
  <text x="740" y="290" text-anchor="middle" class="component-title" fill="white">API接口层</text>
  <text x="740" y="310" text-anchor="middle" class="file-name" fill="white">api.js</text>
  <text x="740" y="325" text-anchor="middle" class="description" fill="white">HTTP请求</text>
  <text x="740" y="340" text-anchor="middle" class="description" fill="white">数据获取</text>
  <text x="740" y="355" text-anchor="middle" class="description" fill="white">错误处理</text>
  <text x="740" y="370" text-anchor="middle" class="description" fill="white">缓存管理</text>
  
  <!-- 实时通信 -->
  <rect x="850" y="270" width="180" height="120" class="api-box" rx="8"/>
  <text x="940" y="290" text-anchor="middle" class="component-title" fill="white">实时通信</text>
  <text x="940" y="310" text-anchor="middle" class="file-name" fill="white">realtime-sync.js</text>
  <text x="940" y="325" text-anchor="middle" class="description" fill="white">WebSocket连接</text>
  <text x="940" y="340" text-anchor="middle" class="description" fill="white">实时数据推送</text>
  <text x="940" y="355" text-anchor="middle" class="description" fill="white">断线重连</text>
  <text x="940" y="370" text-anchor="middle" class="description" fill="white">事件分发</text>
  
  <!-- 导航系统 -->
  <rect x="1050" y="270" width="180" height="120" class="js-box" rx="8"/>
  <text x="1140" y="290" text-anchor="middle" class="component-title" fill="white">导航系统</text>
  <text x="1140" y="310" text-anchor="middle" class="file-name" fill="white">nav-unified.js</text>
  <text x="1140" y="325" text-anchor="middle" class="description" fill="white">统一导航</text>
  <text x="1140" y="340" text-anchor="middle" class="description" fill="white">面包屑</text>
  <text x="1140" y="355" text-anchor="middle" class="description" fill="white">菜单管理</text>
  <text x="1140" y="370" text-anchor="middle" class="description" fill="white">权限控制</text>
  
  <!-- 工具层 -->
  <text x="50" y="430" class="layer-title">工具与服务层</text>
  
  <!-- 数据适配器 -->
  <rect x="50" y="440" width="160" height="100" class="util-box" rx="8"/>
  <text x="130" y="460" text-anchor="middle" class="component-title" fill="white">数据适配器</text>
  <text x="130" y="480" text-anchor="middle" class="file-name" fill="white">data-adapter.js</text>
  <text x="130" y="495" text-anchor="middle" class="description" fill="white">数据格式转换</text>
  <text x="130" y="510" text-anchor="middle" class="description" fill="white">图表数据适配</text>
  <text x="130" y="525" text-anchor="middle" class="description" fill="white">统一数据接口</text>
  
  <!-- 错误处理 -->
  <rect x="230" y="440" width="160" height="100" class="util-box" rx="8"/>
  <text x="310" y="460" text-anchor="middle" class="component-title" fill="white">错误处理</text>
  <text x="310" y="480" text-anchor="middle" class="file-name" fill="white">error-handler.js</text>
  <text x="310" y="495" text-anchor="middle" class="description" fill="white">全局错误捕获</text>
  <text x="310" y="510" text-anchor="middle" class="description" fill="white">友好错误提示</text>
  <text x="310" y="525" text-anchor="middle" class="description" fill="white">错误上报</text>
  
  <!-- 配置管理 -->
  <rect x="410" y="440" width="160" height="100" class="util-box" rx="8"/>
  <text x="490" y="460" text-anchor="middle" class="component-title" fill="white">配置管理</text>
  <text x="490" y="480" text-anchor="middle" class="file-name" fill="white">config.js</text>
  <text x="490" y="495" text-anchor="middle" class="description" fill="white">环境配置</text>
  <text x="490" y="510" text-anchor="middle" class="description" fill="white">API端点</text>
  <text x="490" y="525" text-anchor="middle" class="description" fill="white">功能开关</text>
  
  <!-- 工具函数 -->
  <rect x="590" y="440" width="160" height="100" class="util-box" rx="8"/>
  <text x="670" y="460" text-anchor="middle" class="component-title" fill="white">工具函数</text>
  <text x="670" y="480" text-anchor="middle" class="file-name" fill="white">utils.js</text>
  <text x="670" y="495" text-anchor="middle" class="description" fill="white">通用工具函数</text>
  <text x="670" y="510" text-anchor="middle" class="description" fill="white">时间格式化</text>
  <text x="670" y="525" text-anchor="middle" class="description" fill="white">数据验证</text>
  
  <!-- 本地存储 -->
  <rect x="770" y="440" width="160" height="100" class="util-box" rx="8"/>
  <text x="850" y="460" text-anchor="middle" class="component-title" fill="white">本地存储</text>
  <text x="850" y="480" text-anchor="middle" class="file-name" fill="white">storage.js</text>
  <text x="850" y="495" text-anchor="middle" class="description" fill="white">LocalStorage</text>
  <text x="850" y="510" text-anchor="middle" class="description" fill="white">SessionStorage</text>
  <text x="850" y="525" text-anchor="middle" class="description" fill="white">缓存策略</text>
  
  <!-- 认证管理 -->
  <rect x="950" y="440" width="160" height="100" class="util-box" rx="8"/>
  <text x="1030" y="460" text-anchor="middle" class="component-title" fill="white">认证管理</text>
  <text x="1030" y="480" text-anchor="middle" class="file-name" fill="white">auth.js</text>
  <text x="1030" y="495" text-anchor="middle" class="description" fill="white">JWT管理</text>
  <text x="1030" y="510" text-anchor="middle" class="description" fill="white">登录状态</text>
  <text x="1030" y="525" text-anchor="middle" class="description" fill="white">权限验证</text>
  
  <!-- 样式层 -->
  <text x="50" y="580" class="layer-title">样式层 (CSS)</text>
  
  <!-- 主样式 -->
  <rect x="50" y="590" width="200" height="100" class="css-box" rx="8"/>
  <text x="150" y="610" text-anchor="middle" class="component-title" fill="white">主样式文件</text>
  <text x="150" y="630" text-anchor="middle" class="file-name" fill="white">styles.css</text>
  <text x="150" y="645" text-anchor="middle" class="description" fill="white">Tailwind CSS框架</text>
  <text x="150" y="660" text-anchor="middle" class="description" fill="white">Dota2主题色彩</text>
  <text x="150" y="675" text-anchor="middle" class="description" fill="white">响应式布局</text>
  
  <!-- Tailwind配置 -->
  <rect x="270" y="590" width="200" height="100" class="css-box" rx="8"/>
  <text x="370" y="610" text-anchor="middle" class="component-title" fill="white">Tailwind配置</text>
  <text x="370" y="630" text-anchor="middle" class="file-name" fill="white">tailwind.config.js</text>
  <text x="370" y="645" text-anchor="middle" class="description" fill="white">自定义主题</text>
  <text x="370" y="660" text-anchor="middle" class="description" fill="white">组件样式</text>
  <text x="370" y="675" text-anchor="middle" class="description" fill="white">工具类扩展</text>
  
  <!-- 组件样式 -->
  <rect x="490" y="590" width="200" height="100" class="css-box" rx="8"/>
  <text x="590" y="610" text-anchor="middle" class="component-title" fill="white">组件样式</text>
  <text x="590" y="630" text-anchor="middle" class="description" fill="white">按钮样式</text>
  <text x="590" y="645" text-anchor="middle" class="description" fill="white">表单样式</text>
  <text x="590" y="660" text-anchor="middle" class="description" fill="white">卡片样式</text>
  <text x="590" y="675" text-anchor="middle" class="description" fill="white">动画效果</text>
  
  <!-- 第三方库层 -->
  <text x="720" y="580" class="layer-title">第三方库</text>
  
  <!-- 图表库 -->
  <rect x="720" y="590" width="150" height="100" class="lib-box" rx="8"/>
  <text x="795" y="610" text-anchor="middle" class="component-title" fill="white">图表库</text>
  <text x="795" y="630" text-anchor="middle" class="tech-label" fill="white">ECharts</text>
  <text x="795" y="645" text-anchor="middle" class="description" fill="white">统计图表</text>
  <text x="795" y="660" text-anchor="middle" class="tech-label" fill="white">D3.js</text>
  <text x="795" y="675" text-anchor="middle" class="description" fill="white">复杂可视化</text>
  
  <!-- 工具库 -->
  <rect x="890" y="590" width="150" height="100" class="lib-box" rx="8"/>
  <text x="965" y="610" text-anchor="middle" class="component-title" fill="white">工具库</text>
  <text x="965" y="630" text-anchor="middle" class="tech-label" fill="white">Axios</text>
  <text x="965" y="645" text-anchor="middle" class="description" fill="white">HTTP请求</text>
  <text x="965" y="660" text-anchor="middle" class="tech-label" fill="white">Lodash</text>
  <text x="965" y="675" text-anchor="middle" class="description" fill="white">工具函数</text>
  
  <!-- UI库 -->
  <rect x="1060" y="590" width="150" height="100" class="lib-box" rx="8"/>
  <text x="1135" y="610" text-anchor="middle" class="component-title" fill="white">UI增强</text>
  <text x="1135" y="630" text-anchor="middle" class="tech-label" fill="white">Animate.css</text>
  <text x="1135" y="645" text-anchor="middle" class="description" fill="white">动画效果</text>
  <text x="1135" y="660" text-anchor="middle" class="tech-label" fill="white">Toastify</text>
  <text x="1135" y="675" text-anchor="middle" class="description" fill="white">消息通知</text>
  
  <!-- 数据流连接线 -->
  <!-- 页面层到JS层 -->
  <line x1="120" y1="220" x2="140" y2="270" class="arrow"/>
  <line x1="280" y1="220" x2="340" y2="270" class="arrow"/>
  <line x1="440" y1="220" x2="540" y2="270" class="arrow"/>
  <line x1="600" y1="220" x2="340" y2="270" class="arrow"/>
  <line x1="760" y1="220" x2="340" y2="270" class="arrow"/>
  <line x1="920" y1="220" x2="340" y2="270" class="arrow"/>
  <line x1="1080" y1="220" x2="1140" y2="270" class="arrow"/>
  
  <!-- JS层到工具层 -->
  <line x1="140" y1="390" x2="130" y2="440" class="arrow"/>
  <line x1="340" y1="390" x2="310" y2="440" class="arrow"/>
  <line x1="540" y1="390" x2="490" y2="440" class="arrow"/>
  <line x1="740" y1="390" x2="670" y2="440" class="arrow"/>
  <line x1="940" y1="390" x2="850" y2="440" class="arrow"/>
  <line x1="1140" y1="390" x2="1030" y2="440" class="arrow"/>
  
  <!-- API连接 -->
  <line x1="740" y1="390" x2="740" y2="440" class="data-flow"/>
  
  <!-- 样式连接 -->
  <line x1="340" y1="390" x2="150" y2="590" class="arrow"/>
  <line x1="540" y1="390" x2="370" y2="590" class="arrow"/>
  
  <!-- 第三方库连接 -->
  <line x1="540" y1="390" x2="795" y2="590" class="arrow"/>
  <line x1="740" y1="390" x2="965" y2="590" class="arrow"/>
  <line x1="340" y1="390" x2="1135" y2="590" class="arrow"/>
  
  <!-- 架构特性说明 -->
  <rect x="50" y="720" width="1200" height="150" fill="white" stroke="#bdc3c7" stroke-width="1" rx="5"/>
  <text x="70" y="740" class="layer-title">前端架构特性</text>
  
  <text x="70" y="760" class="component-title">技术栈:</text>
  <text x="140" y="760" class="description">原生HTML5 + CSS3 + JavaScript ES6+，无框架依赖，轻量高效</text>
  
  <text x="70" y="775" class="component-title">模块化设计:</text>
  <text x="160" y="775" class="description">按功能模块拆分JS文件，支持按需加载和独立开发</text>
  
  <text x="70" y="790" class="component-title">响应式布局:</text>
  <text x="160" y="790" class="description">Tailwind CSS + 自定义媒体查询，完美适配桌面和移动端</text>
  
  <text x="70" y="805" class="component-title">数据可视化:</text>
  <text x="160" y="805" class="description">ECharts处理标准图表，D3.js处理复杂交互式可视化</text>
  
  <text x="70" y="820" class="component-title">实时通信:</text>
  <text x="140" y="820" class="description">WebSocket支持实时数据推送，自动重连和错误恢复</text>
  
  <text x="70" y="835" class="component-title">性能优化:</text>
  <text x="140" y="835" class="description">懒加载、缓存策略、CDN加速、代码压缩</text>
  
  <text x="70" y="850" class="component-title">用户体验:</text>
  <text x="140" y="850" class="description">流畅动画、友好错误提示、离线支持、PWA特性</text>
  
  <text x="650" y="760" class="component-title">开发特性:</text>
  <text x="720" y="760" class="description">热重载开发、ESLint代码检查、自动化测试</text>
  
  <text x="650" y="775" class="component-title">安全性:</text>
  <text x="700" y="775" class="description">XSS防护、CSRF保护、内容安全策略(CSP)</text>
  
  <text x="650" y="790" class="component-title">可访问性:</text>
  <text x="720" y="790" class="description">ARIA标签、键盘导航、屏幕阅读器支持</text>
  
  <text x="650" y="805" class="component-title">国际化:</text>
  <text x="700" y="805" class="description">多语言支持、本地化配置、时区处理</text>
  
  <text x="650" y="820" class="component-title">监控分析:</text>
  <text x="720" y="820" class="description">用户行为分析、性能监控、错误追踪</text>
  
  <text x="650" y="835" class="component-title">部署优化:</text>
  <text x="720" y="835" class="description">静态资源优化、Gzip压缩、浏览器缓存策略</text>
  
  <text x="650" y="850" class="component-title">兼容性:</text>
  <text x="710" y="850" class="description">现代浏览器全支持，IE11+兼容，渐进式增强</text>
  
</svg>

